<svg width="29" height="30" viewBox="0 0 29 30" fill="none" xmlns="http://www.w3.org/2000/svg">
<path d="M8.41 0H20.59C25.23 0 29 3.9 29 8.7V21.3C29 23.6074 28.114 25.8203 26.5368 27.4518C24.9596 29.0834 22.8205 30 20.59 30H8.41C3.77 30 0 26.1 0 21.3V8.7C0 6.39262 0.886051 4.17974 2.46323 2.54817C4.04041 0.916605 6.17953 0 8.41 0ZM8.12 3C6.73557 3 5.40784 3.56893 4.4289 4.58162C3.44996 5.59432 2.9 6.96783 2.9 8.4V21.6C2.9 24.585 5.2345 27 8.12 27H20.88C22.2644 27 23.5922 26.4311 24.5711 25.4184C25.55 24.4057 26.1 23.0322 26.1 21.6V8.4C26.1 5.415 23.7655 3 20.88 3H8.12ZM22.1125 5.25C22.5932 5.25 23.0542 5.44754 23.3941 5.79917C23.734 6.15081 23.925 6.62772 23.925 7.125C23.925 7.62228 23.734 8.09919 23.3941 8.45083C23.0542 8.80246 22.5932 9 22.1125 9C21.6318 9 21.1708 8.80246 20.8309 8.45083C20.491 8.09919 20.3 7.62228 20.3 7.125C20.3 6.62772 20.491 6.15081 20.8309 5.79917C21.1708 5.44754 21.6318 5.25 22.1125 5.25ZM14.5 7.5C16.4228 7.5 18.2669 8.29018 19.6265 9.6967C20.9862 11.1032 21.75 13.0109 21.75 15C21.75 16.9891 20.9862 18.8968 19.6265 20.3033C18.2669 21.7098 16.4228 22.5 14.5 22.5C12.5772 22.5 10.7331 21.7098 9.37348 20.3033C8.01384 18.8968 7.25 16.9891 7.25 15C7.25 13.0109 8.01384 11.1032 9.37348 9.6967C10.7331 8.29018 12.5772 7.5 14.5 7.5ZM14.5 10.5C13.3463 10.5 12.2399 10.9741 11.4241 11.818C10.6083 12.6619 10.15 13.8065 10.15 15C10.15 16.1935 10.6083 17.3381 11.4241 18.182C12.2399 19.0259 13.3463 19.5 14.5 19.5C15.6537 19.5 16.7601 19.0259 17.5759 18.182C18.3917 17.3381 18.85 16.1935 18.85 15C18.85 13.8065 18.3917 12.6619 17.5759 11.818C16.7601 10.9741 15.6537 10.5 14.5 10.5Z" fill="#DAA520"/>
</svg>
