<svg width="33" height="24" viewBox="0 0 33 24" fill="none" xmlns="http://www.w3.org/2000/svg">
<path d="M13.2 17.1429L21.7635 12L13.2 6.85714V17.1429ZM32.274 3.72C32.4885 4.52571 32.637 5.60571 32.736 6.97714C32.8515 8.34857 32.901 9.53143 32.901 10.56L33 12C33 15.7543 32.736 18.5143 32.274 20.28C31.8615 21.8229 30.9045 22.8171 29.4195 23.2457C28.644 23.4686 27.225 23.6229 25.047 23.7257C22.902 23.8457 20.9385 23.8971 19.1235 23.8971L16.5 24C9.5865 24 5.28 23.7257 3.5805 23.2457C2.0955 22.8171 1.1385 21.8229 0.726 20.28C0.5115 19.4743 0.363 18.3943 0.264 17.0229C0.1485 15.6514 0.0989999 14.4686 0.0989999 13.44L0 12C0 8.24571 0.264 5.48571 0.726 3.72C1.1385 2.17714 2.0955 1.18286 3.5805 0.754286C4.356 0.531429 5.775 0.377143 7.953 0.274285C10.098 0.154285 12.0615 0.102857 13.8765 0.102857L16.5 0C23.4135 0 27.72 0.274286 29.4195 0.754286C30.9045 1.18286 31.8615 2.17714 32.274 3.72Z" fill="#DAA520"/>
</svg>
